<svg width="150" height="150" viewBox="0 0 150 150" fill="none" xmlns="http://www.w3.org/2000/svg">
<path d="M104.844 86.7188C104.844 91.7047 99.9609 96.4844 95.0781 96.4844C92.6517 96.4862 90.3106 95.5889 88.5071 93.9656C86.7035 92.3424 85.5654 90.1085 85.3125 87.6953H52.1094C51.5914 87.6953 51.0946 87.4895 50.7283 87.1233C50.362 86.757 50.1562 86.2602 50.1562 85.7422V55.4688C50.1562 54.9507 50.362 54.454 50.7283 54.0877C51.0946 53.7214 51.5914 53.5156 52.1094 53.5156H93.125C93.643 53.5156 94.1398 53.7214 94.5061 54.0877C94.8724 54.454 95.0781 54.9507 95.0781 55.4688V76.9531C97.6465 77.0216 100.091 78.0724 101.908 79.8892C103.724 81.706 104.775 84.1503 104.844 86.7188Z" fill="#FAFAFA"/>
<path d="M89.2188 61.3281C89.2188 62.1007 88.9897 62.8559 88.5604 63.4983C88.1312 64.1407 87.5211 64.6414 86.8074 64.937C86.0936 65.2327 85.3082 65.31 84.5504 65.1593C83.7927 65.0086 83.0967 64.6366 82.5504 64.0903C82.0041 63.544 81.632 62.8479 81.4813 62.0902C81.3306 61.3325 81.4079 60.547 81.7036 59.8333C81.9993 59.1195 82.4999 58.5094 83.1423 58.0802C83.7847 57.651 84.5399 57.4219 85.3125 57.4219C86.3485 57.4219 87.3421 57.8334 88.0746 58.566C88.8072 59.2986 89.2188 60.2921 89.2188 61.3281Z" fill="#E0E0E0"/>
<path d="M51.443 86.1043L65.9822 68.1441C66.0748 68.0297 66.192 67.9378 66.3251 67.8751C66.4581 67.8124 66.6037 67.7806 66.7508 67.782C66.8979 67.7835 67.0427 67.8181 67.1746 67.8834C67.3064 67.9487 67.4218 68.0429 67.5121 68.159L73.5925 75.9766L79.7006 69.8685C79.7943 69.7748 79.9061 69.7012 80.0292 69.6521C80.1523 69.603 80.2841 69.5795 80.4166 69.583C80.549 69.5865 80.6794 69.6169 80.7998 69.6724C80.9201 69.7278 81.0279 69.8072 81.1166 69.9057L89.2175 78.9063C89.2175 78.9063 85.3112 80.8594 85.3112 87.6953H52.1081C51.9262 87.69 51.7498 87.6323 51.5999 87.5292C51.4499 87.4262 51.3329 87.2821 51.2627 87.1142C51.1925 86.9464 51.1722 86.7619 51.2042 86.5827C51.2361 86.4036 51.319 86.2375 51.443 86.1043Z" fill="#E0E0E0"/>
<path d="M100.938 86.7188C100.938 86.9777 100.835 87.2261 100.651 87.4093C100.468 87.5924 100.22 87.6953 99.9609 87.6953H96.0547V91.6016C96.0547 91.8606 95.9518 92.109 95.7687 92.2921C95.5855 92.4752 95.3371 92.5781 95.0781 92.5781C94.8191 92.5781 94.5707 92.4752 94.3876 92.2921C94.2044 92.109 94.1016 91.8606 94.1016 91.6016V87.6953H90.1953C89.9363 87.6953 89.6879 87.5924 89.5048 87.4093C89.3216 87.2261 89.2188 86.9777 89.2188 86.7188C89.2188 86.4598 89.3216 86.2114 89.5048 86.0282C89.6879 85.8451 89.9363 85.7422 90.1953 85.7422H94.1016V81.8359C94.1016 81.5769 94.2044 81.3285 94.3876 81.1454C94.5707 80.9623 94.8191 80.8594 95.0781 80.8594C95.3371 80.8594 95.5855 80.9623 95.7687 81.1454C95.9518 81.3285 96.0547 81.5769 96.0547 81.8359V85.7422H99.9609C100.22 85.7422 100.468 85.8451 100.651 86.0282C100.835 86.2114 100.938 86.4598 100.938 86.7188ZM105.82 86.7188C105.821 89.3976 104.821 91.98 103.016 93.9591C101.21 95.9382 98.7305 97.1711 96.0629 97.4158C93.3952 97.6604 90.7325 96.8991 88.5974 95.2813C86.4622 93.6636 85.0089 91.3062 84.5226 88.6719H52.1094C51.3326 88.671 50.588 88.3621 50.0387 87.8129C49.4895 87.2636 49.1805 86.5189 49.1797 85.7422V55.4688C49.1805 54.692 49.4895 53.9473 50.0387 53.3981C50.588 52.8489 51.3326 52.5399 52.1094 52.5391H93.125C93.9017 52.5399 94.6464 52.8489 95.1957 53.3981C95.7449 53.9473 96.0538 54.692 96.0547 55.4688V76.0261C98.7217 76.2721 101.201 77.5045 103.007 79.4822C104.813 81.4598 105.817 84.0404 105.82 86.7188ZM51.1328 55.4688V85.1562L65.1886 67.5861C65.3772 67.3503 65.6178 67.1615 65.8917 67.0344C66.1656 66.9073 66.4652 66.8454 66.7671 66.8536C67.0689 66.8619 67.3647 66.94 67.6312 67.0818C67.8978 67.2236 68.1279 67.4253 68.3033 67.671L73.5958 74.5937L78.9678 69.2217C79.1611 69.0263 79.394 68.8744 79.6508 68.7762C79.9076 68.678 80.1824 68.6358 80.4568 68.6523C80.7311 68.6676 80.9991 68.7405 81.2433 68.8663C81.4875 68.9921 81.7024 69.168 81.874 69.3824L89.3779 77.6298C90.8034 76.729 92.4223 76.1793 94.1016 76.0261V55.4688C94.1012 55.2099 93.9982 54.9617 93.8152 54.7786C93.6321 54.5955 93.3839 54.4925 93.125 54.4922H52.1094C51.8505 54.4925 51.6023 54.5955 51.4192 54.7786C51.2361 54.9617 51.1331 55.2099 51.1328 55.4688ZM66.7325 68.8316L52.3845 86.7188H80.4069L66.7325 68.8316ZM84.3359 86.7188C84.3368 85.2325 84.6472 83.7628 85.2473 82.4031C85.8474 81.0434 86.724 79.8235 87.8215 78.8213L80.3887 70.6498L74.7955 76.163L82.8655 86.7188H84.3359ZM103.867 86.7188C103.867 84.9804 103.352 83.2812 102.386 81.8358C101.42 80.3905 100.048 79.2639 98.4416 78.5987C96.8356 77.9335 95.0684 77.7594 93.3635 78.0986C91.6586 78.4377 90.0925 79.2748 88.8633 80.5039C87.6341 81.7331 86.7971 83.2992 86.4579 85.0041C86.1188 86.709 86.2929 88.4762 86.9581 90.0822C87.6233 91.6882 88.7498 93.0608 90.1952 94.0266C91.6405 94.9923 93.3398 95.5078 95.0781 95.5078C97.4083 95.5052 99.6424 94.5784 101.29 92.9307C102.938 91.283 103.865 89.049 103.867 86.7188ZM80.4297 61.3281C80.4297 60.3624 80.7161 59.4184 81.2526 58.6154C81.7891 57.8124 82.5517 57.1866 83.4439 56.817C84.3361 56.4474 85.3179 56.3507 86.2651 56.5391C87.2123 56.7275 88.0823 57.1926 88.7652 57.8755C89.448 58.5583 89.9131 59.4284 90.1015 60.3755C90.2899 61.3227 90.1932 62.3045 89.8236 63.1967C89.4541 64.0889 88.8282 64.8515 88.0252 65.388C87.2223 65.9246 86.2782 66.2109 85.3125 66.2109C84.018 66.2094 82.7769 65.6945 81.8615 64.7791C80.9461 63.8637 80.4312 62.6227 80.4297 61.3281ZM82.3828 61.3281C82.3828 61.9076 82.5546 62.474 82.8766 62.9558C83.1985 63.4376 83.656 63.8131 84.1914 64.0348C84.7267 64.2565 85.3158 64.3146 85.8841 64.2015C86.4524 64.0885 86.9744 63.8095 87.3841 63.3997C87.7938 62.99 88.0729 62.468 88.1859 61.8997C88.2989 61.3314 88.2409 60.7423 88.0192 60.207C87.7974 59.6717 87.4219 59.2141 86.9401 58.8922C86.4584 58.5703 85.8919 58.3984 85.3125 58.3984C84.5358 58.3993 83.7911 58.7082 83.2418 59.2575C82.6926 59.8067 82.3837 60.5514 82.3828 61.3281Z" fill="#E5E5E5"/>
<rect x="0.5" y="0.5" width="149" height="149" rx="3.5" stroke="#E5E5E5" stroke-dasharray="6 6"/>
</svg>
