<svg width="42" height="60" viewBox="0 0 42 60" fill="none" xmlns="http://www.w3.org/2000/svg">
<path d="M20.9861 56.7139C19.2468 56.1609 11.6798 53.6448 7.59673 50.5652C3.87952 47.7607 3.15039 46.6892 3.15039 40.694V6.75446L20.9861 3.23828L38.8219 6.75446V40.6913C38.8219 46.6866 38.0927 47.7581 34.3755 50.5626C30.2951 53.6422 22.7254 56.1583 20.9861 56.7139Z" fill="#D6B262"/>
<path d="M41.698 40.6623V4.16174L21.028 0.00793721L20.9856 0L0.0556787 4.15116L0 4.16174V40.6623C0 47.3851 0.957143 49.4673 5.69513 53.0417C9.96914 56.2669 17.2816 58.7988 20.2273 59.7381L20.2989 59.7619C20.3492 59.7778 20.3837 59.7883 20.3996 59.7936L20.9829 60L21.5689 59.7936C21.5874 59.7883 21.6325 59.7725 21.7041 59.7487L21.7412 59.7381C24.6869 58.7988 31.9993 56.2669 36.2733 53.0417C41.059 49.4303 41.9711 47.3481 41.698 40.6623ZM36.0135 52.6978C31.7925 55.8832 24.5331 58.394 21.6007 59.3306C21.5079 59.3597 21.4495 59.3783 21.4257 59.3862L20.9856 59.5423L20.5454 59.3888C20.5242 59.3809 20.4738 59.365 20.3943 59.3386L20.3598 59.328C17.4354 58.3967 10.1786 55.8832 5.95497 52.6978C1.36015 49.2319 0.429521 47.2079 0.429521 40.6623V4.51363L20.9829 0.439192L41.2659 4.51363V40.6729C41.5336 47.1788 40.6507 49.2001 36.0135 52.6978ZM20.9856 1.35726L1.3575 5.22797L1.30182 5.23856V40.6914C1.30182 47.0147 2.07602 48.7106 6.47994 52.0337C11.3876 55.7351 20.4685 58.4866 20.853 58.6031L20.9856 58.6427L21.1181 58.6031C21.5026 58.4866 30.5835 55.7351 35.4885 52.0337C39.8924 48.7106 40.6693 47.0147 40.6693 40.6914V5.23856L21.0731 1.37578L20.9856 1.35726ZM39.7519 40.6914C39.7519 47.028 38.8399 48.3588 34.937 51.3035C30.4589 54.6821 22.0355 57.3596 20.9856 57.685C19.9356 57.3596 11.5149 54.6821 7.03407 51.3035C3.13126 48.3588 2.21919 47.028 2.21919 40.6914V5.98995L20.9856 2.29121L39.7519 5.99259V40.6914Z" fill="#D6B262"/>
<path d="M16.5447 23.7245H16.2133L16.2 23.8171C16.1152 24.3754 16.0012 24.595 15.9216 24.6797C15.805 24.804 15.6592 24.8887 15.4895 24.9284C15.3065 24.9733 14.8717 24.9945 14.1956 24.9945H12.0294C11.6742 24.9945 11.6158 24.976 11.5018 24.9389C11.47 24.9284 11.4329 24.9151 11.3852 24.9019C11.1863 24.8463 11.0458 24.7141 10.953 24.4918C10.8522 24.2537 10.8019 23.8515 10.8019 23.2986V19.621H14.1823C14.5032 19.621 14.641 19.658 14.702 19.6898C14.7736 19.7295 14.8187 19.8089 14.8425 19.9359L14.8584 20.0285H15.1872V18.6527H14.8452L14.8399 18.7585C14.8346 18.8564 14.8001 18.9278 14.7285 18.9754C14.6914 19.0019 14.5562 19.0601 14.0816 19.0601H10.7992V13.7792H14.3732C14.9353 13.7792 15.0918 13.8745 15.1342 13.9142C15.1899 13.9697 15.3145 14.1787 15.5266 14.9698L15.5478 15.0518H15.8686V13.1416H8.29102V13.5041H8.40237C8.76826 13.5041 8.99363 13.5755 9.05196 13.7104C9.12354 13.8798 9.16066 14.184 9.16066 14.6153V24.5156C9.16066 24.9389 9.06787 25.0845 8.99098 25.1321C8.86106 25.2141 8.65956 25.2617 8.39707 25.2776L8.29367 25.2829V25.6215H16.5447V23.7245Z" fill="#551A52"/>
<path d="M20.7557 28.4656C16.1 28.4656 10.7654 28.5079 5.21875 28.6296V28.7619C10.7654 28.8836 16.1 28.9259 20.7557 28.9259C20.7531 41.0672 20.9175 49.6659 20.9201 49.7929H21.0527C21.0554 49.6659 21.2197 41.0672 21.2171 28.9259C30.2848 28.9206 36.6586 28.7645 36.7541 28.7619V28.6296C36.6586 28.627 30.2848 28.4709 21.2171 28.4656C21.2118 22.5629 21.1694 15.8533 21.0527 8.88184H20.9201C20.8008 15.8533 20.7584 22.5629 20.7557 28.4656Z" fill="#551A52"/>
<path d="M25.4744 25.2802H25.3631C25.09 25.2802 24.9733 25.1691 24.9733 24.9125C24.9733 24.7432 24.9839 24.5897 25.0025 24.4548L26.0551 15.8535L29.4753 25.558L29.5018 25.6268H29.7298L32.7975 15.8588L33.858 24.3886C33.8872 24.6267 33.9004 24.7855 33.9004 24.8622C33.9004 25.021 33.866 25.1374 33.797 25.2009C33.7387 25.2591 33.6459 25.2829 33.524 25.2802L33.4099 25.2749V25.6242H36.0852V25.2882L35.9871 25.2776C35.7537 25.2538 35.5973 25.1903 35.531 25.0897C35.478 25.0104 35.3985 24.8014 35.3163 24.2484L34.1682 14.9592C34.1391 14.7211 34.1258 14.5306 34.1258 14.3983C34.1258 13.8057 34.3697 13.5147 34.8947 13.4855L34.9981 13.4803V13.1416H33.0838L30.0242 22.9467L26.6251 13.1416H24.3767V13.4882H24.4881C24.6578 13.4882 24.8381 13.5411 25.021 13.6416C25.143 13.7078 25.3339 13.9194 25.5699 14.5491L24.3237 24.431C24.3052 24.6109 24.276 24.7775 24.2389 24.9257C24.2044 25.058 24.1593 25.1532 24.1037 25.2062C24.0851 25.2247 24.0056 25.2802 23.6953 25.2802H23.584V25.6268H25.4744V25.2802Z" fill="#551A52"/>
<path d="M36.2303 43.1414L36.1083 43.2155C35.6046 43.5197 35.1538 43.6732 34.772 43.6732C34.3823 43.6732 33.974 43.5541 33.5551 43.316C33.1335 43.0779 32.521 42.3953 31.7362 41.2894C30.9435 40.1729 30.4477 39.44 30.2594 39.1066L29.4693 37.8711C30.1056 37.4848 30.6094 37.0139 30.9673 36.4662C31.3465 35.8868 31.5374 35.2677 31.5374 34.6274C31.5374 34.0665 31.4287 33.585 31.2113 33.1934C30.9939 32.8018 30.6704 32.487 30.2462 32.2595C29.8273 32.0346 29.4136 31.8997 29.0133 31.86C28.6209 31.8203 27.9846 31.8018 27.1176 31.8018H23.5859V32.1457H23.6946C24.0579 32.151 24.2753 32.2357 24.3389 32.397C24.4158 32.5902 24.4556 32.8415 24.4556 33.1431V42.8874C24.4556 43.4324 24.3867 43.652 24.3283 43.7446C24.2779 43.824 24.1242 43.9245 23.692 43.943L23.5859 43.9483V44.2896H26.9187V43.943H26.81C26.4839 43.943 26.2718 43.8769 26.1975 43.7525C26.11 43.607 26.0676 43.353 26.0676 42.9985V38.4187H26.9373L27.9501 38.387L29.1167 40.2126C29.122 40.2311 29.1326 40.2549 29.1459 40.2655C30.392 42.1519 31.2802 43.3239 31.7893 43.7473C32.3089 44.1838 32.94 44.4034 33.6611 44.4034C34.7296 44.4034 35.6125 44.1203 36.286 43.5621L36.3417 43.5144L36.2303 43.1414ZM27.221 37.8764H26.0676V32.3441H26.9505C28.1012 32.3441 28.9099 32.6696 29.3606 33.3098C29.8193 33.9607 30.05 34.6618 30.05 35.3894C30.05 36.1328 29.8193 36.7387 29.3606 37.1938C28.9019 37.6462 28.1808 37.8764 27.221 37.8764Z" fill="#551A52"/>
<path d="M10.666 32.1513L10.7827 32.146C11.1194 32.1275 11.3474 32.191 11.4323 32.3312C11.5012 32.4423 11.5834 32.7228 11.5834 33.4186V42.7369C11.5834 43.4036 11.5118 43.6602 11.4508 43.7555C11.3978 43.8401 11.2361 43.9407 10.7774 43.9407H10.666V44.2873H14.1658V43.9407H14.0545C13.7018 43.9407 13.5454 43.8878 13.4738 43.8454C13.3757 43.7846 13.3094 43.7079 13.2776 43.6179C13.2564 43.5597 13.2219 43.3692 13.2219 42.721V33.3101C13.2219 32.7307 13.2484 32.5137 13.2723 32.4344C13.2988 32.3444 13.3916 32.2703 13.5507 32.2174C13.731 32.1566 13.898 32.1328 14.0439 32.1486L14.1658 32.1619V31.8047H10.666V32.1513Z" fill="#551A52"/>
</svg>
