<svg width="96" height="23" viewBox="0 0 96 23" fill="none" xmlns="http://www.w3.org/2000/svg">
<path d="M14.8842 3.91168C14.8842 4.2424 14.7861 4.335 14.643 4.335C14.4706 4.335 14.4415 4.18155 14.3911 3.95137C14.1525 2.86397 14.2187 1.80303 12.148 1.80303L6.25669 1.79245C6.13738 1.79245 6.0764 1.8824 6.0764 2.08877V10.2482C6.0764 10.4546 6.10557 10.5445 6.25669 10.5445H12.2143C13.0415 10.5445 13.2855 10.4387 13.715 9.98365C13.8926 9.79051 13.9563 9.68733 14.0756 9.68733C14.1657 9.68733 14.2267 9.74553 14.2267 9.9228C14.2267 10.1001 14.2214 12.9627 14.2214 13.3781C14.2214 13.6983 14.1286 13.8253 14.0066 13.8253C13.8263 13.8253 13.7972 13.5898 13.7972 13.3517C13.7972 12.7246 13.5824 11.6055 12.1162 11.6055L6.28851 11.6081C6.13739 11.6081 6.07905 11.6981 6.07905 11.8145C6.07905 11.8145 6.04989 18.9606 6.07905 19.5824C6.14003 20.7941 6.13473 21.9027 7.06801 21.9133L13.7229 21.8815C14.6933 21.8921 14.8312 20.8153 15.2528 19.4422C15.3482 19.1009 15.3721 18.9977 15.5232 18.9977C15.7035 18.9977 15.7486 19.1141 15.7035 19.4422L15.3138 22.3101C15.1891 23.1144 14.8683 22.9927 13.6964 22.9927L1.87664 22.9901C1.54787 22.9901 1.39674 22.9292 1.39674 22.752C1.39674 22.662 1.54787 22.6038 1.72551 22.5747C2.02512 22.5456 2.20541 22.5456 2.41487 22.4848C3.04589 22.3366 3.43564 21.9239 3.49397 19.7067V2.89837C3.43299 1.89299 3.19437 1.4194 2.20276 1.21303C1.9933 1.15482 1.60355 1.15483 1.33311 1.12308C1.12365 1.09397 0.943359 1.06487 0.943359 0.945813C0.943359 0.768549 1.08388 0.702405 1.4153 0.689176L13.9616 0.699759C14.3168 0.699759 14.4256 0.585992 14.5396 0.496037C14.6324 0.424602 14.6589 0.408728 14.7596 0.414019C14.8471 0.416665 14.8842 0.517202 14.8842 0.665364V3.91168Z" fill="#D6B262"/>
<path d="M46.7802 22.9925C46.0803 22.9898 45.9398 22.8708 45.9398 22.7226C45.9398 22.6035 46.0007 22.5506 46.1492 22.4924C46.3587 22.4051 46.3295 21.9633 46.2685 21.4315L44.8288 6.26877L37.3865 21.3733C36.7554 22.6697 36.6653 22.9343 36.3975 22.9343C36.188 22.9343 36.0369 22.6406 35.4669 21.5797C34.6874 20.1377 32.1049 15.042 31.9565 14.7484C31.686 14.2192 28.2366 7.33236 27.9052 6.53599L26.6749 20.0187C26.6458 20.4896 26.614 20.9023 26.614 21.4024C26.614 22.1379 26.9851 22.3337 27.4253 22.4633C27.8734 22.5956 28.2896 22.5797 28.5044 22.5797C28.7589 22.5797 28.8278 22.6723 28.8278 22.7544C28.8278 22.9263 28.7271 22.9925 28.4275 22.9925H22.9524C22.6528 22.9925 22.4434 22.9634 22.4434 22.757C22.4434 22.6379 22.5945 22.5797 22.743 22.5797C22.9842 22.5797 23.1937 22.5797 23.6444 22.4924C24.6334 22.3152 24.6944 21.2569 24.8455 20.0478L27.0064 1.29215C27.0567 0.863537 27.1575 0.702148 27.3351 0.702148C27.5154 0.702148 27.6003 0.763 27.7859 1.14399L36.9675 19.2805L45.7886 1.17309C45.9583 0.831789 46.0299 0.702148 46.2394 0.702148C46.4488 0.702148 46.5204 0.831788 46.6 1.49851L48.6097 19.1932C48.729 20.2541 48.9384 21.9024 50.2297 22.3152C51.0993 22.5797 51.2345 22.6247 51.2345 22.7729C51.2345 22.921 51.155 22.9925 50.8421 22.9925H46.7802Z" fill="#D6B262"/>
<path d="M64.5408 0.708008C64.8695 0.708008 65.0206 0.768859 65.0206 0.948769C65.0206 1.06783 64.9013 1.12868 64.7794 1.12868C64.5699 1.12868 64.3896 1.15778 64.029 1.21864C63.2177 1.36944 62.9791 1.68164 62.9181 2.732C62.8571 3.6924 62.8571 4.42527 62.8571 9.10293V19.252C62.8571 21.7337 63.2761 22.3316 64.1775 22.4533C64.5964 22.5142 64.5487 22.5512 64.8138 22.5724C65.0816 22.5935 65.1744 22.6835 65.1744 22.7734C65.1744 22.9243 65.1135 22.9904 64.7847 22.9904C63.1355 22.9904 59.4369 22.9904 58.5354 22.9904C58.2915 22.9904 58.1775 22.9534 58.1775 22.7734C58.1775 22.6835 58.2385 22.5697 58.5062 22.5697C58.6865 22.5697 59.0153 22.5406 59.2857 22.4798C59.885 22.3607 60.3357 21.8395 60.3357 19.2493V9.10293C60.3357 4.42262 60.3357 3.6924 60.2747 2.732C60.2137 1.71339 59.9141 1.39855 59.2539 1.24774C58.9252 1.15778 58.5328 1.12868 58.3233 1.12868C58.204 1.12868 58.082 1.06783 58.082 0.948769C58.082 0.768859 58.2332 0.708008 58.5619 0.708008H64.5408Z" fill="#D6B262"/>
<path d="M75.0318 2.92192C75.0318 1.90067 74.7322 1.42179 73.7406 1.21277C73.4993 1.15192 72.9902 1.12282 72.7198 1.12282C72.6005 1.12282 72.4785 1.06197 72.4785 0.942909C72.4785 0.762999 72.6296 0.702148 72.9584 0.702148C74.308 0.702148 78.9585 0.702148 79.8891 0.702148C81.7795 0.702148 83.7892 0.882058 85.3801 2.02237C86.4008 2.78699 87.4826 4.48555 87.5913 6.63389C87.7318 9.44895 86.8277 11.3221 83.8211 12.7297C86.2815 15.8781 88.4265 18.4445 90.1684 20.3044C91.7884 22.0136 93.0796 22.3443 93.83 22.4633C94.4 22.5533 94.8189 22.5533 94.9992 22.5533C95.1503 22.5533 95.2697 22.6432 95.2697 22.7332C95.2697 22.9131 95.0894 22.974 94.5485 22.974H92.4168C90.7358 22.974 89.9855 22.8231 89.206 22.4051C87.9148 21.7146 86.8648 20.2462 85.1547 17.9973C83.8953 16.3464 82.3787 14.4415 81.7795 13.661C81.6787 13.5181 81.57 13.4811 81.3897 13.4811L77.6991 13.4837C77.5479 13.4837 77.4896 13.5737 77.4896 13.7245V14.3833C77.4896 17.2618 77.5956 19.5292 77.7441 20.7886C77.8343 21.659 78.0146 22.3178 78.9134 22.4395C79.3323 22.5004 79.4012 22.5586 79.6717 22.5586C79.852 22.5586 79.9129 22.6485 79.9129 22.7385C79.9129 22.8893 79.7618 22.9792 79.433 22.9792C77.7839 22.9792 74.414 22.9792 73.5152 22.9792C73.1864 22.9792 73.0353 22.9184 73.0353 22.7385C73.0353 22.6485 73.0963 22.5586 73.2766 22.5586C73.547 22.5586 73.9076 22.4977 74.178 22.4395C74.7773 22.3205 75.0477 21.667 75.0477 20.7886C75.0477 19.2726 75.0318 4.67604 75.0318 2.92192ZM80.7137 12.4122C81.4348 12.4122 82.2727 12.3222 82.9647 11.8433C84.0146 11.1237 84.8816 9.94106 84.9346 7.66043C85.0221 3.90613 82.9541 1.80806 79.7433 1.80806C78.8418 1.80806 78.0331 1.89802 77.7335 1.98797C77.5824 2.04883 77.4922 2.16788 77.4922 2.34779V11.8698C77.4922 12.2958 77.7256 12.4148 78.0199 12.4148L80.7137 12.4122Z" fill="#D6B262"/>
</svg>
